<svg xmlns="http://www.w3.org/2000/svg" width="860" height="500" viewBox="0 0 860 500">
  <rect width="860" height="500" fill="#0000aa"/>
  <rect width="860" height="24" fill="#aaaaaa"/>
  <text x="10" y="16" font-size="11" fill="#0000aa" font-family="'Courier New',monospace" font-weight="bold" letter-spacing="2">&#9632;  LANGUAGE RADAR &#8212; inetanel</text>
  <polygon points="430,80 560,190 510,330 350,330 295,190" fill="none" stroke="#55ffff" stroke-width="1" opacity="0.45"/>
  <polygon points="430,116 524,198 492,306 368,306 323,198" fill="none" stroke="#55ffff" stroke-width="0.5" opacity="0.15"/>
  <polygon points="430,152 488,206 474,282 386,282 351,206" fill="none" stroke="#55ffff" stroke-width="0.5" opacity="0.15"/>
  <polygon points="430,188 452,214 455,258 405,258 379,214" fill="none" stroke="#55ffff" stroke-width="0.5" opacity="0.15"/>
  <polygon points="430,224 416,222 437,234 423,234 407,222" fill="none" stroke="#55ffff" stroke-width="0.5" opacity="0.15"/>
  <circle cx="430" cy="262" r="3" fill="#55ffff"/>
  <text x="430" y="230" font-size="13" fill="#55ffff" font-family="'Courier New',monospace" text-anchor="middle">[ run: Actions &#8594; Update Profile README &#8594; Run workflow ]</text>
  <text x="430" y="250" font-size="11" fill="#aaaaaa" font-family="'Courier New',monospace" text-anchor="middle">spider chart will show your top 8 languages with real data</text>
</svg>
