<svg xmlns="http://www.w3.org/2000/svg" width="860" height="500" viewBox="0 0 860 500">
  <rect width="860" height="500" fill="#0000aa"/>
  <rect width="860" height="24" fill="#aaaaaa"/>
  <text x="10" y="16" font-size="11" fill="#0000aa" font-family="'Courier New',monospace" font-weight="bold" letter-spacing="2">&#9632;  LANGUAGE RADAR &#8212; inetanel (8 languages)</text>
  <polygon points="430.0,242.4 450.9,251.1 459.6,272.0 450.9,292.9 430.0,301.6 409.1,292.9 400.4,272.0 409.1,251.1" fill="none" stroke="#55ffff" stroke-width="0.8" opacity="0.45"/>
  <text x="435" y="247" font-size="10" fill="#55ffff" opacity="0.7" font-family="'Courier New',monospace">20%</text>
  <polygon points="430.0,212.8 471.9,230.1 489.2,272.0 471.9,313.9 430.0,331.2 388.1,313.9 370.8,272.0 388.1,230.1" fill="none" stroke="#55ffff" stroke-width="0.8" opacity="0.45"/>
  <text x="435" y="218" font-size="10" fill="#55ffff" opacity="0.7" font-family="'Courier New',monospace">40%</text>
  <polygon points="430.0,183.2 492.8,209.2 518.8,272.0 492.8,334.8 430.0,360.8 367.2,334.8 341.2,272.0 367.2,209.2" fill="none" stroke="#55ffff" stroke-width="0.8" opacity="0.45"/>
  <text x="435" y="188" font-size="10" fill="#55ffff" opacity="0.7" font-family="'Courier New',monospace">60%</text>
  <polygon points="430.0,153.6 513.7,188.3 548.4,272.0 513.7,355.7 430.0,390.4 346.3,355.7 311.6,272.0 346.3,188.3" fill="none" stroke="#55ffff" stroke-width="0.8" opacity="0.45"/>
  <text x="435" y="159" font-size="10" fill="#55ffff" opacity="0.7" font-family="'Courier New',monospace">80%</text>
  <polygon points="430.0,124.0 534.7,167.3 578.0,272.0 534.7,376.7 430.0,420.0 325.3,376.7 282.0,272.0 325.3,167.3" fill="none" stroke="#55ffff" stroke-width="1.5" opacity="0.85"/>
  <text x="435" y="129" font-size="10" fill="#55ffff" opacity="0.7" font-family="'Courier New',monospace">100%</text>
  <line x1="430.0" y1="272.0" x2="430.0" y2="124.0" stroke="#55ffff" stroke-width="1" opacity="0.45"/>
  <line x1="430.0" y1="272.0" x2="534.7" y2="167.3" stroke="#55ffff" stroke-width="1" opacity="0.45"/>
  <line x1="430.0" y1="272.0" x2="578.0" y2="272.0" stroke="#55ffff" stroke-width="1" opacity="0.45"/>
  <line x1="430.0" y1="272.0" x2="534.7" y2="376.7" stroke="#55ffff" stroke-width="1" opacity="0.45"/>
  <line x1="430.0" y1="272.0" x2="430.0" y2="420.0" stroke="#55ffff" stroke-width="1" opacity="0.45"/>
  <line x1="430.0" y1="272.0" x2="325.3" y2="376.7" stroke="#55ffff" stroke-width="1" opacity="0.45"/>
  <line x1="430.0" y1="272.0" x2="282.0" y2="272.0" stroke="#55ffff" stroke-width="1" opacity="0.45"/>
  <line x1="430.0" y1="272.0" x2="325.3" y2="167.3" stroke="#55ffff" stroke-width="1" opacity="0.45"/>
  <polygon points="430.0,124.0 474.5,227.5 485.7,272.0 446.6,288.6 430.0,289.8 422.9,279.1 420.0,272.0 422.9,264.9" fill="#55ffff" fill-opacity="0.2" stroke="#55ffff" stroke-width="2.5" stroke-linejoin="round"/>
  <circle cx="430.0" cy="124.0" r="13" fill="#55ffff" opacity="0.12"/>
  <circle cx="430.0" cy="124.0" r="5" fill="#55ffff" stroke="#0000aa" stroke-width="2"/>
  <line x1="430.0" y1="124.0" x2="430.0" y2="54.0" stroke="#55ffff" stroke-width="0.5" opacity="0.3" stroke-dasharray="3 3"/>
  <rect x="391.0" y="32.0" width="78" height="44" fill="#00007a" rx="3"/>
  <rect x="391.0" y="32.0" width="78" height="44" fill="none" stroke="#55ffff" stroke-width="1" rx="3" opacity="0.7"/>
  <text x="430.0" y="48.0" font-size="13" fill="#55ffff" font-family="'Courier New',monospace" text-anchor="middle" font-weight="bold">Python</text>
  <text x="430.0" y="66.0" font-size="15" fill="#ffffff" font-family="'Courier New',monospace" text-anchor="middle" font-weight="bold">44.9%</text>
  <circle cx="474.5" cy="227.5" r="13" fill="#ffff55" opacity="0.12"/>
  <circle cx="474.5" cy="227.5" r="5" fill="#ffff55" stroke="#0000aa" stroke-width="2"/>
  <line x1="474.5" y1="227.5" x2="584.1" y2="117.9" stroke="#ffff55" stroke-width="0.5" opacity="0.3" stroke-dasharray="3 3"/>
  <rect x="527.1" y="95.9" width="114" height="44" fill="#00007a" rx="3"/>
  <rect x="527.1" y="95.9" width="114" height="44" fill="none" stroke="#ffff55" stroke-width="1" rx="3" opacity="0.7"/>
  <text x="584.1" y="111.9" font-size="13" fill="#ffff55" font-family="'Courier New',monospace" text-anchor="middle" font-weight="bold">TypeScript</text>
  <text x="584.1" y="129.9" font-size="15" fill="#ffffff" font-family="'Courier New',monospace" text-anchor="middle" font-weight="bold">19.1%</text>
  <circle cx="485.7" cy="272.0" r="13" fill="#55ff55" opacity="0.12"/>
  <circle cx="485.7" cy="272.0" r="5" fill="#55ff55" stroke="#0000aa" stroke-width="2"/>
  <line x1="485.7" y1="272.0" x2="648.0" y2="272.0" stroke="#55ff55" stroke-width="0.5" opacity="0.3" stroke-dasharray="3 3"/>
  <rect x="613.5" y="250.0" width="69" height="44" fill="#00007a" rx="3"/>
  <rect x="613.5" y="250.0" width="69" height="44" fill="none" stroke="#55ff55" stroke-width="1" rx="3" opacity="0.7"/>
  <text x="648.0" y="266.0" font-size="13" fill="#55ff55" font-family="'Courier New',monospace" text-anchor="middle" font-weight="bold">HTML</text>
  <text x="648.0" y="284.0" font-size="15" fill="#ffffff" font-family="'Courier New',monospace" text-anchor="middle" font-weight="bold">16.9%</text>
  <circle cx="446.6" cy="288.6" r="13" fill="#ff55ff" opacity="0.12"/>
  <circle cx="446.6" cy="288.6" r="5" fill="#ff55ff" stroke="#0000aa" stroke-width="2"/>
  <line x1="446.6" y1="288.6" x2="584.1" y2="426.1" stroke="#ff55ff" stroke-width="0.5" opacity="0.3" stroke-dasharray="3 3"/>
  <rect x="527.1" y="404.1" width="114" height="44" fill="#00007a" rx="3"/>
  <rect x="527.1" y="404.1" width="114" height="44" fill="none" stroke="#ff55ff" stroke-width="1" rx="3" opacity="0.7"/>
  <text x="584.1" y="420.1" font-size="13" fill="#ff55ff" font-family="'Courier New',monospace" text-anchor="middle" font-weight="bold">JavaScript</text>
  <text x="584.1" y="438.1" font-size="15" fill="#ffffff" font-family="'Courier New',monospace" text-anchor="middle" font-weight="bold">7.1%</text>
  <circle cx="430.0" cy="289.8" r="13" fill="#ff9955" opacity="0.12"/>
  <circle cx="430.0" cy="289.8" r="5" fill="#ff9955" stroke="#0000aa" stroke-width="2"/>
  <line x1="430.0" y1="289.8" x2="430.0" y2="470.0" stroke="#ff9955" stroke-width="0.5" opacity="0.3" stroke-dasharray="3 3"/>
  <rect x="391.0" y="448.0" width="78" height="44" fill="#00007a" rx="3"/>
  <rect x="391.0" y="448.0" width="78" height="44" fill="none" stroke="#ff9955" stroke-width="1" rx="3" opacity="0.7"/>
  <text x="430.0" y="464.0" font-size="13" fill="#ff9955" font-family="'Courier New',monospace" text-anchor="middle" font-weight="bold">Svelte</text>
  <text x="430.0" y="482.0" font-size="15" fill="#ffffff" font-family="'Courier New',monospace" text-anchor="middle" font-weight="bold">5.4%</text>
  <circle cx="422.9" cy="279.1" r="13" fill="#aaaaff" opacity="0.12"/>
  <circle cx="422.9" cy="279.1" r="5" fill="#aaaaff" stroke="#0000aa" stroke-width="2"/>
  <line x1="422.9" y1="279.1" x2="275.9" y2="426.1" stroke="#aaaaff" stroke-width="0.5" opacity="0.3" stroke-dasharray="3 3"/>
  <rect x="245.9" y="404.1" width="60" height="44" fill="#00007a" rx="3"/>
  <rect x="245.9" y="404.1" width="60" height="44" fill="none" stroke="#aaaaff" stroke-width="1" rx="3" opacity="0.7"/>
  <text x="275.9" y="420.1" font-size="13" fill="#aaaaff" font-family="'Courier New',monospace" text-anchor="middle" font-weight="bold">SCSS</text>
  <text x="275.9" y="438.1" font-size="15" fill="#ffffff" font-family="'Courier New',monospace" text-anchor="middle" font-weight="bold">3.0%</text>
  <circle cx="420.0" cy="272.0" r="13" fill="#ff5555" opacity="0.12"/>
  <circle cx="420.0" cy="272.0" r="5" fill="#ff5555" stroke="#0000aa" stroke-width="2"/>
  <line x1="420.0" y1="272.0" x2="212.0" y2="272.0" stroke="#ff5555" stroke-width="0.5" opacity="0.3" stroke-dasharray="3 3"/>
  <rect x="182.0" y="250.0" width="60" height="44" fill="#00007a" rx="3"/>
  <rect x="182.0" y="250.0" width="60" height="44" fill="none" stroke="#ff5555" stroke-width="1" rx="3" opacity="0.7"/>
  <text x="212.0" y="266.0" font-size="13" fill="#ff5555" font-family="'Courier New',monospace" text-anchor="middle" font-weight="bold">CSS</text>
  <text x="212.0" y="284.0" font-size="15" fill="#ffffff" font-family="'Courier New',monospace" text-anchor="middle" font-weight="bold">2.4%</text>
  <circle cx="422.9" cy="264.9" r="13" fill="#55ffaa" opacity="0.12"/>
  <circle cx="422.9" cy="264.9" r="5" fill="#55ffaa" stroke="#0000aa" stroke-width="2"/>
  <line x1="422.9" y1="264.9" x2="275.9" y2="117.9" stroke="#55ffaa" stroke-width="0.5" opacity="0.3" stroke-dasharray="3 3"/>
  <rect x="241.4" y="95.9" width="69" height="44" fill="#00007a" rx="3"/>
  <rect x="241.4" y="95.9" width="69" height="44" fill="none" stroke="#55ffaa" stroke-width="1" rx="3" opacity="0.7"/>
  <text x="275.9" y="111.9" font-size="13" fill="#55ffaa" font-family="'Courier New',monospace" text-anchor="middle" font-weight="bold">Shell</text>
  <text x="275.9" y="129.9" font-size="15" fill="#ffffff" font-family="'Courier New',monospace" text-anchor="middle" font-weight="bold">1.3%</text>
  <circle cx="430.0" cy="272.0" r="3" fill="#55ffff"/>
</svg>