<svg xmlns="http://www.w3.org/2000/svg" width="860" height="460" viewBox="0 0 860 460">
  <rect width="860" height="460" fill="#0000aa"/>
  <rect width="860" height="24" fill="#aaaaaa"/>
  <text x="10" y="16" font-size="11" fill="#0000aa" font-family="'Courier New',monospace" font-weight="bold" letter-spacing="2">&#9632;  LANGUAGE RADAR &#8212; inetanel</text>
  <polygon points="430.0,224.0 430.0,276.0" fill="none" stroke="#55ffff" stroke-width="0.5" opacity="0.2"/>
  <text x="435" y="229" font-size="11" fill="#55ffff" opacity="0.55" font-family="'Courier New',monospace">20%</text>
  <polygon points="430.0,198.0 430.0,302.0" fill="none" stroke="#55ffff" stroke-width="0.5" opacity="0.2"/>
  <text x="435" y="203" font-size="11" fill="#55ffff" opacity="0.55" font-family="'Courier New',monospace">40%</text>
  <polygon points="430.0,172.0 430.0,328.0" fill="none" stroke="#55ffff" stroke-width="0.5" opacity="0.2"/>
  <text x="435" y="177" font-size="11" fill="#55ffff" opacity="0.55" font-family="'Courier New',monospace">60%</text>
  <polygon points="430.0,146.0 430.0,354.0" fill="none" stroke="#55ffff" stroke-width="0.5" opacity="0.2"/>
  <text x="435" y="151" font-size="11" fill="#55ffff" opacity="0.55" font-family="'Courier New',monospace">80%</text>
  <polygon points="430.0,120.0 430.0,380.0" fill="none" stroke="#55ffff" stroke-width="1" opacity="0.5"/>
  <text x="435" y="125" font-size="11" fill="#55ffff" opacity="0.55" font-family="'Courier New',monospace">100%</text>
  <line x1="430" y1="250" x2="430.0" y2="120.0" stroke="#55ffff" stroke-width="0.5" opacity="0.2"/>
  <line x1="430" y1="250" x2="430.0" y2="380.0" stroke="#55ffff" stroke-width="0.5" opacity="0.2"/>
  <polygon points="430.0,126.5 430.0,250.6" fill="#55ffff" fill-opacity="0.1" stroke="#55ffff" stroke-width="1.5" stroke-linejoin="round"/>
  <circle cx="430.0" cy="126.5" r="12" fill="#55ffff" opacity="0.15"/>
  <circle cx="430.0" cy="126.5" r="5" fill="#55ffff" stroke="#0000aa" stroke-width="2"/>
  <rect x="388.0" y="25.0" width="84" height="46" fill="#000066" rx="3" opacity="0.85"/>
  <rect x="388.0" y="25.0" width="84" height="46" fill="none" stroke="#55ffff" stroke-width="1" rx="3" opacity="0.6"/>
  <text x="430.0" y="41.0" font-size="15" fill="#55ffff" font-family="'Courier New',monospace" text-anchor="middle" font-weight="bold">Python</text>
  <text x="430.0" y="62.0" font-size="16" fill="#ffffff" font-family="'Courier New',monospace" text-anchor="middle" font-weight="bold">99.6%</text>
  <circle cx="430.0" cy="250.6" r="12" fill="#ffff55" opacity="0.15"/>
  <circle cx="430.0" cy="250.6" r="5" fill="#ffff55" stroke="#0000aa" stroke-width="2"/>
  <rect x="393.0" y="429.0" width="74" height="46" fill="#000066" rx="3" opacity="0.85"/>
  <rect x="393.0" y="429.0" width="74" height="46" fill="none" stroke="#ffff55" stroke-width="1" rx="3" opacity="0.6"/>
  <text x="430.0" y="445.0" font-size="15" fill="#ffff55" font-family="'Courier New',monospace" text-anchor="middle" font-weight="bold">Shell</text>
  <text x="430.0" y="466.0" font-size="16" fill="#ffffff" font-family="'Courier New',monospace" text-anchor="middle" font-weight="bold">0.4%</text>
  <circle cx="430" cy="250" r="3" fill="#55ffff"/>
</svg>