<svg xmlns="http://www.w3.org/2000/svg" width="860" height="177" viewBox="0 0 860 177">
  <defs>
    <filter id="glow" x="-50%" y="-50%" width="200%" height="200%">
      <feGaussianBlur stdDeviation="1.5" result="blur"/>
      <feMerge><feMergeNode in="blur"/><feMergeNode in="SourceGraphic"/></feMerge>
    </filter>
  </defs>
  <rect width="860" height="177" fill="#0000aa"/>
  <rect width="860" height="24" fill="#aaaaaa"/>
  <text x="10" y="16" font-size="11" fill="#0000aa" font-family="'Courier New',monospace" font-weight="bold" letter-spacing="2">&#9632;  CONTRIBUTION ACTIVITY &#8212; last 12 months</text>
  
  <rect x="41" y="40" width="13" height="13" fill="#00007a" rx="2"/>
  <rect x="41" y="55" width="13" height="13" fill="#00007a" rx="2"/>
  <rect x="41" y="70" width="13" height="13" fill="#00007a" rx="2"/>
  <rect x="41" y="85" width="13" height="13" fill="#00007a" rx="2"/>
  <rect x="41" y="100" width="13" height="13" fill="#00007a" rx="2"/>
  <rect x="41" y="115" width="13" height="13" fill="#00007a" rx="2"/>
  <rect x="41" y="130" width="13" height="13" fill="#003055" rx="2"/>
  <rect x="56" y="40" width="13" height="13" fill="#00007a" rx="2"/>
  <rect x="56" y="55" width="13" height="13" fill="#00007a" rx="2"/>
  <rect x="56" y="70" width="13" height="13" fill="#00007a" rx="2"/>
  <rect x="56" y="85" width="13" height="13" fill="#00007a" rx="2"/>
  <rect x="56" y="100" width="13" height="13" fill="#00007a" rx="2"/>
  <rect x="56" y="115" width="13" height="13" fill="#00007a" rx="2"/>
  <rect x="56" y="130" width="13" height="13" fill="#00007a" rx="2"/>
  <rect x="71" y="40" width="13" height="13" fill="#00007a" rx="2"/>
  <rect x="71" y="55" width="13" height="13" fill="#00007a" rx="2"/>
  <rect x="71" y="70" width="13" height="13" fill="#00007a" rx="2"/>
  <rect x="71" y="85" width="13" height="13" fill="#00007a" rx="2"/>
  <rect x="71" y="100" width="13" height="13" fill="#00007a" rx="2"/>
  <rect x="71" y="115" width="13" height="13" fill="#00007a" rx="2"/>
  <rect x="71" y="130" width="13" height="13" fill="#00007a" rx="2"/>
  <rect x="86" y="40" width="13" height="13" fill="#00007a" rx="2"/>
  <rect x="86" y="55" width="13" height="13" fill="#00007a" rx="2"/>
  <rect x="86" y="70" width="13" height="13" fill="#00007a" rx="2"/>
  <rect x="86" y="85" width="13" height="13" fill="#00007a" rx="2"/>
  <rect x="86" y="100" width="13" height="13" fill="#00007a" rx="2"/>
  <rect x="86" y="115" width="13" height="13" fill="#00007a" rx="2"/>
  <rect x="86" y="130" width="13" height="13" fill="#00007a" rx="2"/>
  <rect x="101" y="40" width="13" height="13" fill="#00007a" rx="2"/>
  <rect x="101" y="55" width="13" height="13" fill="#00007a" rx="2"/>
  <rect x="101" y="70" width="13" height="13" fill="#00007a" rx="2"/>
  <rect x="101" y="85" width="13" height="13" fill="#00007a" rx="2"/>
  <rect x="101" y="100" width="13" height="13" fill="#00007a" rx="2"/>
  <rect x="101" y="115" width="13" height="13" fill="#00007a" rx="2"/>
  <rect x="101" y="130" width="13" height="13" fill="#00007a" rx="2"/>
  <rect x="116" y="40" width="13" height="13" fill="#00007a" rx="2"/>
  <rect x="116" y="55" width="13" height="13" fill="#00007a" rx="2"/>
  <rect x="116" y="70" width="13" height="13" fill="#00007a" rx="2"/>
  <rect x="116" y="85" width="13" height="13" fill="#00007a" rx="2"/>
  <rect x="116" y="100" width="13" height="13" fill="#00007a" rx="2"/>
  <rect x="116" y="115" width="13" height="13" fill="#00007a" rx="2"/>
  <rect x="116" y="130" width="13" height="13" fill="#00007a" rx="2"/>
  <rect x="131" y="40" width="13" height="13" fill="#00007a" rx="2"/>
  <rect x="131" y="55" width="13" height="13" fill="#00007a" rx="2"/>
  <rect x="131" y="70" width="13" height="13" fill="#00007a" rx="2"/>
  <rect x="131" y="85" width="13" height="13" fill="#00007a" rx="2"/>
  <rect x="131" y="100" width="13" height="13" fill="#00007a" rx="2"/>
  <rect x="131" y="115" width="13" height="13" fill="#00007a" rx="2"/>
  <rect x="131" y="130" width="13" height="13" fill="#00007a" rx="2"/>
  <rect x="146" y="40" width="13" height="13" fill="#00007a" rx="2"/>
  <rect x="146" y="55" width="13" height="13" fill="#00007a" rx="2"/>
  <rect x="146" y="70" width="13" height="13" fill="#00007a" rx="2"/>
  <rect x="146" y="85" width="13" height="13" fill="#00007a" rx="2"/>
  <rect x="146" y="100" width="13" height="13" fill="#00007a" rx="2"/>
  <rect x="146" y="115" width="13" height="13" fill="#00007a" rx="2"/>
  <rect x="146" y="130" width="13" height="13" fill="#00007a" rx="2"/>
  <rect x="161" y="40" width="13" height="13" fill="#00007a" rx="2"/>
  <rect x="161" y="55" width="13" height="13" fill="#00007a" rx="2"/>
  <rect x="161" y="70" width="13" height="13" fill="#00007a" rx="2"/>
  <rect x="161" y="85" width="13" height="13" fill="#00007a" rx="2"/>
  <rect x="161" y="100" width="13" height="13" fill="#00007a" rx="2"/>
  <rect x="161" y="115" width="13" height="13" fill="#00007a" rx="2"/>
  <rect x="161" y="130" width="13" height="13" fill="#00007a" rx="2"/>
  <rect x="176" y="40" width="13" height="13" fill="#00007a" rx="2"/>
  <rect x="176" y="55" width="13" height="13" fill="#00007a" rx="2"/>
  <rect x="176" y="70" width="13" height="13" fill="#00007a" rx="2"/>
  <rect x="176" y="85" width="13" height="13" fill="#00007a" rx="2"/>
  <rect x="176" y="100" width="13" height="13" fill="#00007a" rx="2"/>
  <rect x="176" y="115" width="13" height="13" fill="#00007a" rx="2"/>
  <rect x="176" y="130" width="13" height="13" fill="#00007a" rx="2"/>
  <rect x="191" y="40" width="13" height="13" fill="#00007a" rx="2"/>
  <rect x="191" y="55" width="13" height="13" fill="#00007a" rx="2"/>
  <rect x="191" y="70" width="13" height="13" fill="#00007a" rx="2"/>
  <rect x="191" y="85" width="13" height="13" fill="#00007a" rx="2"/>
  <rect x="191" y="100" width="13" height="13" fill="#00007a" rx="2"/>
  <rect x="191" y="115" width="13" height="13" fill="#00007a" rx="2"/>
  <rect x="191" y="130" width="13" height="13" fill="#00007a" rx="2"/>
  <rect x="206" y="40" width="13" height="13" fill="#00007a" rx="2"/>
  <rect x="206" y="55" width="13" height="13" fill="#00007a" rx="2"/>
  <rect x="206" y="70" width="13" height="13" fill="#00007a" rx="2"/>
  <rect x="206" y="85" width="13" height="13" fill="#00007a" rx="2"/>
  <rect x="206" y="100" width="13" height="13" fill="#00007a" rx="2"/>
  <rect x="206" y="115" width="13" height="13" fill="#00007a" rx="2"/>
  <rect x="206" y="130" width="13" height="13" fill="#00007a" rx="2"/>
  <rect x="221" y="40" width="13" height="13" fill="#00007a" rx="2"/>
  <rect x="221" y="55" width="13" height="13" fill="#00007a" rx="2"/>
  <rect x="221" y="70" width="13" height="13" fill="#00007a" rx="2"/>
  <rect x="221" y="85" width="13" height="13" fill="#00007a" rx="2"/>
  <rect x="221" y="100" width="13" height="13" fill="#00007a" rx="2"/>
  <rect x="221" y="115" width="13" height="13" fill="#00007a" rx="2"/>
  <rect x="221" y="130" width="13" height="13" fill="#00007a" rx="2"/>
  <rect x="236" y="40" width="13" height="13" fill="#00007a" rx="2"/>
  <rect x="236" y="55" width="13" height="13" fill="#00007a" rx="2"/>
  <rect x="236" y="70" width="13" height="13" fill="#00007a" rx="2"/>
  <rect x="236" y="85" width="13" height="13" fill="#00007a" rx="2"/>
  <rect x="236" y="100" width="13" height="13" fill="#00007a" rx="2"/>
  <rect x="236" y="115" width="13" height="13" fill="#00007a" rx="2"/>
  <rect x="236" y="130" width="13" height="13" fill="#00007a" rx="2"/>
  <rect x="251" y="40" width="13" height="13" fill="#00007a" rx="2"/>
  <rect x="251" y="55" width="13" height="13" fill="#00007a" rx="2"/>
  <rect x="251" y="70" width="13" height="13" fill="#00007a" rx="2"/>
  <rect x="251" y="85" width="13" height="13" fill="#00007a" rx="2"/>
  <rect x="251" y="100" width="13" height="13" fill="#00007a" rx="2"/>
  <rect x="251" y="115" width="13" height="13" fill="#00007a" rx="2"/>
  <rect x="251" y="130" width="13" height="13" fill="#00007a" rx="2"/>
  <rect x="266" y="40" width="13" height="13" fill="#00007a" rx="2"/>
  <rect x="266" y="55" width="13" height="13" fill="#00007a" rx="2"/>
  <rect x="266" y="70" width="13" height="13" fill="#00007a" rx="2"/>
  <rect x="266" y="85" width="13" height="13" fill="#00007a" rx="2"/>
  <rect x="266" y="100" width="13" height="13" fill="#00007a" rx="2"/>
  <rect x="266" y="115" width="13" height="13" fill="#00007a" rx="2"/>
  <rect x="266" y="130" width="13" height="13" fill="#00007a" rx="2"/>
  <rect x="281" y="40" width="13" height="13" fill="#00007a" rx="2"/>
  <rect x="281" y="55" width="13" height="13" fill="#00007a" rx="2"/>
  <rect x="281" y="70" width="13" height="13" fill="#00007a" rx="2"/>
  <rect x="281" y="85" width="13" height="13" fill="#00007a" rx="2"/>
  <rect x="281" y="100" width="13" height="13" fill="#00007a" rx="2"/>
  <rect x="281" y="115" width="13" height="13" fill="#00007a" rx="2"/>
  <rect x="281" y="130" width="13" height="13" fill="#00007a" rx="2"/>
  <rect x="296" y="40" width="13" height="13" fill="#00007a" rx="2"/>
  <rect x="296" y="55" width="13" height="13" fill="#00007a" rx="2"/>
  <rect x="296" y="70" width="13" height="13" fill="#00007a" rx="2"/>
  <rect x="296" y="85" width="13" height="13" fill="#00007a" rx="2"/>
  <rect x="296" y="100" width="13" height="13" fill="#00007a" rx="2"/>
  <rect x="296" y="115" width="13" height="13" fill="#00007a" rx="2"/>
  <rect x="296" y="130" width="13" height="13" fill="#00007a" rx="2"/>
  <rect x="311" y="40" width="13" height="13" fill="#00007a" rx="2"/>
  <rect x="311" y="55" width="13" height="13" fill="#00007a" rx="2"/>
  <rect x="311" y="70" width="13" height="13" fill="#00007a" rx="2"/>
  <rect x="311" y="85" width="13" height="13" fill="#00007a" rx="2"/>
  <rect x="311" y="100" width="13" height="13" fill="#00007a" rx="2"/>
  <rect x="311" y="115" width="13" height="13" fill="#00007a" rx="2"/>
  <rect x="311" y="130" width="13" height="13" fill="#00007a" rx="2"/>
  <rect x="326" y="40" width="13" height="13" fill="#00007a" rx="2"/>
  <rect x="326" y="55" width="13" height="13" fill="#00007a" rx="2"/>
  <rect x="326" y="70" width="13" height="13" fill="#00007a" rx="2"/>
  <rect x="326" y="85" width="13" height="13" fill="#00007a" rx="2"/>
  <rect x="326" y="100" width="13" height="13" fill="#00007a" rx="2"/>
  <rect x="326" y="115" width="13" height="13" fill="#00007a" rx="2"/>
  <rect x="326" y="130" width="13" height="13" fill="#00007a" rx="2"/>
  <rect x="341" y="40" width="13" height="13" fill="#00007a" rx="2"/>
  <rect x="341" y="55" width="13" height="13" fill="#00007a" rx="2"/>
  <rect x="341" y="70" width="13" height="13" fill="#003055" rx="2"/>
  <rect x="341" y="85" width="13" height="13" fill="#00007a" rx="2"/>
  <rect x="341" y="100" width="13" height="13" fill="#00007a" rx="2"/>
  <rect x="341" y="115" width="13" height="13" fill="#00007a" rx="2"/>
  <rect x="341" y="130" width="13" height="13" fill="#00007a" rx="2"/>
  <rect x="356" y="40" width="13" height="13" fill="#00007a" rx="2"/>
  <rect x="356" y="55" width="13" height="13" fill="#00007a" rx="2"/>
  <rect x="356" y="70" width="13" height="13" fill="#00007a" rx="2"/>
  <rect x="356" y="85" width="13" height="13" fill="#00007a" rx="2"/>
  <rect x="356" y="100" width="13" height="13" fill="#00007a" rx="2"/>
  <rect x="356" y="115" width="13" height="13" fill="#00007a" rx="2"/>
  <rect x="356" y="130" width="13" height="13" fill="#00007a" rx="2"/>
  <rect x="371" y="40" width="13" height="13" fill="#00007a" rx="2"/>
  <rect x="371" y="55" width="13" height="13" fill="#00007a" rx="2"/>
  <rect x="371" y="70" width="13" height="13" fill="#003055" rx="2"/>
  <rect x="371" y="85" width="13" height="13" fill="#005a99" rx="2"/>
  <rect x="371" y="100" width="13" height="13" fill="#00007a" rx="2"/>
  <rect x="371" y="115" width="13" height="13" fill="#00007a" rx="2"/>
  <rect x="371" y="130" width="13" height="13" fill="#00007a" rx="2"/>
  <rect x="386" y="40" width="13" height="13" fill="#00007a" rx="2"/>
  <rect x="386" y="55" width="13" height="13" fill="#00007a" rx="2"/>
  <rect x="386" y="70" width="13" height="13" fill="#00007a" rx="2"/>
  <rect x="386" y="85" width="13" height="13" fill="#00007a" rx="2"/>
  <rect x="386" y="100" width="13" height="13" fill="#00007a" rx="2"/>
  <rect x="386" y="115" width="13" height="13" fill="#003055" rx="2"/>
  <rect x="386" y="130" width="13" height="13" fill="#00007a" rx="2"/>
  <rect x="401" y="40" width="13" height="13" fill="#00007a" rx="2"/>
  <rect x="401" y="55" width="13" height="13" fill="#00007a" rx="2"/>
  <rect x="401" y="70" width="13" height="13" fill="#00007a" rx="2"/>
  <rect x="401" y="85" width="13" height="13" fill="#00007a" rx="2"/>
  <rect x="401" y="100" width="13" height="13" fill="#00007a" rx="2"/>
  <rect x="401" y="115" width="13" height="13" fill="#003055" rx="2"/>
  <rect x="401" y="130" width="13" height="13" fill="#00007a" rx="2"/>
  <rect x="416" y="40" width="13" height="13" fill="#003055" rx="2"/>
  <rect x="416" y="55" width="13" height="13" fill="#00007a" rx="2"/>
  <rect x="416" y="70" width="13" height="13" fill="#00007a" rx="2"/>
  <rect x="416" y="85" width="13" height="13" fill="#00007a" rx="2"/>
  <rect x="416" y="100" width="13" height="13" fill="#00007a" rx="2"/>
  <rect x="416" y="115" width="13" height="13" fill="#00007a" rx="2"/>
  <rect x="416" y="130" width="13" height="13" fill="#00007a" rx="2"/>
  <rect x="431" y="40" width="13" height="13" fill="#003055" rx="2"/>
  <rect x="431" y="55" width="13" height="13" fill="#005a99" rx="2"/>
  <rect x="431" y="70" width="13" height="13" fill="#003055" rx="2"/>
  <rect x="431" y="85" width="13" height="13" fill="#005a99" rx="2"/>
  <rect x="431" y="100" width="13" height="13" fill="#003055" rx="2"/>
  <rect x="431" y="115" width="13" height="13" fill="#003055" rx="2"/>
  <rect x="431" y="130" width="13" height="13" fill="#003055" rx="2"/>
  <rect x="446" y="40" width="13" height="13" fill="#00007a" rx="2"/>
  <rect x="446" y="55" width="13" height="13" fill="#003055" rx="2"/>
  <rect x="446" y="70" width="13" height="13" fill="#00007a" rx="2"/>
  <rect x="446" y="85" width="13" height="13" fill="#003055" rx="2"/>
  <rect x="446" y="100" width="13" height="13" fill="#003055" rx="2"/>
  <rect x="446" y="115" width="13" height="13" fill="#00007a" rx="2"/>
  <rect x="446" y="130" width="13" height="13" fill="#00007a" rx="2"/>
  <rect x="461" y="40" width="13" height="13" fill="#0088cc" rx="2"/>
  <rect x="461" y="55" width="13" height="13" fill="#003055" rx="2"/>
  <rect x="461" y="70" width="13" height="13" fill="#003055" rx="2"/>
  <rect x="461" y="85" width="13" height="13" fill="#003055" rx="2"/>
  <rect x="461" y="100" width="13" height="13" fill="#00007a" rx="2"/>
  <rect x="461" y="115" width="13" height="13" fill="#00007a" rx="2"/>
  <rect x="461" y="130" width="13" height="13" fill="#003055" rx="2"/>
  <rect x="476" y="40" width="13" height="13" fill="#00007a" rx="2"/>
  <rect x="476" y="55" width="13" height="13" fill="#003055" rx="2"/>
  <rect x="476" y="70" width="13" height="13" fill="#00007a" rx="2"/>
  <rect x="476" y="85" width="13" height="13" fill="#00007a" rx="2"/>
  <rect x="476" y="100" width="13" height="13" fill="#00007a" rx="2"/>
  <rect x="476" y="115" width="13" height="13" fill="#00007a" rx="2"/>
  <rect x="476" y="130" width="13" height="13" fill="#00007a" rx="2"/>
  <rect x="491" y="40" width="13" height="13" fill="#003055" rx="2"/>
  <rect x="491" y="55" width="13" height="13" fill="#00007a" rx="2"/>
  <rect x="491" y="70" width="13" height="13" fill="#00007a" rx="2"/>
  <rect x="491" y="85" width="13" height="13" fill="#00007a" rx="2"/>
  <rect x="491" y="100" width="13" height="13" fill="#003055" rx="2"/>
  <rect x="491" y="115" width="13" height="13" fill="#005a99" rx="2"/>
  <rect x="491" y="130" width="13" height="13" fill="#003055" rx="2"/>
  <rect x="506" y="40" width="13" height="13" fill="#00007a" rx="2"/>
  <rect x="506" y="55" width="13" height="13" fill="#00007a" rx="2"/>
  <rect x="506" y="70" width="13" height="13" fill="#00007a" rx="2"/>
  <rect x="506" y="85" width="13" height="13" fill="#00007a" rx="2"/>
  <rect x="506" y="100" width="13" height="13" fill="#00007a" rx="2"/>
  <rect x="506" y="115" width="13" height="13" fill="#00007a" rx="2"/>
  <rect x="506" y="130" width="13" height="13" fill="#003055" rx="2"/>
  <rect x="521" y="40" width="13" height="13" fill="#003055" rx="2"/>
  <rect x="521" y="55" width="13" height="13" fill="#003055" rx="2"/>
  <rect x="521" y="70" width="13" height="13" fill="#003055" rx="2"/>
  <rect x="521" y="85" width="13" height="13" fill="#005a99" rx="2"/>
  <rect x="521" y="100" width="13" height="13" fill="#003055" rx="2"/>
  <rect x="521" y="115" width="13" height="13" fill="#00007a" rx="2"/>
  <rect x="521" y="130" width="13" height="13" fill="#00007a" rx="2"/>
  <rect x="536" y="40" width="13" height="13" fill="#00007a" rx="2"/>
  <rect x="536" y="55" width="13" height="13" fill="#003055" rx="2"/>
  <rect x="536" y="70" width="13" height="13" fill="#003055" rx="2"/>
  <rect x="536" y="85" width="13" height="13" fill="#003055" rx="2"/>
  <rect x="536" y="100" width="13" height="13" fill="#00007a" rx="2"/>
  <rect x="536" y="115" width="13" height="13" fill="#00007a" rx="2"/>
  <rect x="536" y="130" width="13" height="13" fill="#003055" rx="2"/>
  <rect x="551" y="40" width="13" height="13" fill="#003055" rx="2"/>
  <rect x="551" y="55" width="13" height="13" fill="#0088cc" rx="2"/>
  <rect x="551" y="70" width="13" height="13" fill="#003055" rx="2"/>
  <rect x="551" y="85" width="13" height="13" fill="#003055" rx="2"/>
  <rect x="551" y="100" width="13" height="13" fill="#00007a" rx="2"/>
  <rect x="551" y="115" width="13" height="13" fill="#005a99" rx="2"/>
  <rect x="551" y="130" width="13" height="13" fill="#00007a" rx="2"/>
  <rect x="566" y="40" width="13" height="13" fill="#003055" rx="2"/>
  <rect x="566" y="55" width="13" height="13" fill="#003055" rx="2"/>
  <rect x="566" y="70" width="13" height="13" fill="#00007a" rx="2"/>
  <rect x="566" y="85" width="13" height="13" fill="#00007a" rx="2"/>
  <rect x="566" y="100" width="13" height="13" fill="#00007a" rx="2"/>
  <rect x="566" y="115" width="13" height="13" fill="#00007a" rx="2"/>
  <rect x="566" y="130" width="13" height="13" fill="#003055" rx="2"/>
  <rect x="581" y="40" width="13" height="13" fill="#003055" rx="2"/>
  <rect x="581" y="55" width="13" height="13" fill="#003055" rx="2"/>
  <rect x="581" y="70" width="13" height="13" fill="#00007a" rx="2"/>
  <rect x="581" y="85" width="13" height="13" fill="#005a99" rx="2"/>
  <rect x="581" y="100" width="13" height="13" fill="#00007a" rx="2"/>
  <rect x="581" y="115" width="13" height="13" fill="#003055" rx="2"/>
  <rect x="581" y="130" width="13" height="13" fill="#003055" rx="2"/>
  <rect x="596" y="40" width="13" height="13" fill="#005a99" rx="2"/>
  <rect x="596" y="55" width="13" height="13" fill="#0088cc" rx="2"/>
  <rect x="596" y="70" width="13" height="13" fill="#0088cc" rx="2"/>
  <rect x="596" y="85" width="13" height="13" fill="#003055" rx="2"/>
  <rect x="596" y="100" width="13" height="13" fill="#003055" rx="2"/>
  <rect x="596" y="115" width="13" height="13" fill="#005a99" rx="2"/>
  <rect x="596" y="130" width="13" height="13" fill="#003055" rx="2"/>
  <rect x="611" y="40" width="13" height="13" fill="#003055" rx="2"/>
  <rect x="611" y="55" width="13" height="13" fill="#005a99" rx="2"/>
  <rect x="611" y="70" width="13" height="13" fill="#0088cc" rx="2"/>
  <rect x="611" y="85" width="13" height="13" fill="#55ffff" rx="2" filter="url(#glow)"/>
  <rect x="611" y="100" width="13" height="13" fill="#55ffff" rx="2" filter="url(#glow)"/>
  <rect x="611" y="115" width="13" height="13" fill="#005a99" rx="2"/>
  <rect x="611" y="130" width="13" height="13" fill="#003055" rx="2"/>
  <rect x="626" y="40" width="13" height="13" fill="#003055" rx="2"/>
  <rect x="626" y="55" width="13" height="13" fill="#003055" rx="2"/>
  <rect x="626" y="70" width="13" height="13" fill="#003055" rx="2"/>
  <rect x="626" y="85" width="13" height="13" fill="#003055" rx="2"/>
  <rect x="626" y="100" width="13" height="13" fill="#003055" rx="2"/>
  <rect x="626" y="115" width="13" height="13" fill="#003055" rx="2"/>
  <rect x="626" y="130" width="13" height="13" fill="#00007a" rx="2"/>
  <rect x="641" y="40" width="13" height="13" fill="#003055" rx="2"/>
  <rect x="641" y="55" width="13" height="13" fill="#55ffff" rx="2" filter="url(#glow)"/>
  <rect x="641" y="70" width="13" height="13" fill="#005a99" rx="2"/>
  <rect x="641" y="85" width="13" height="13" fill="#00007a" rx="2"/>
  <rect x="641" y="100" width="13" height="13" fill="#003055" rx="2"/>
  <rect x="641" y="115" width="13" height="13" fill="#003055" rx="2"/>
  <rect x="641" y="130" width="13" height="13" fill="#55ffff" rx="2" filter="url(#glow)"/>
  <rect x="656" y="40" width="13" height="13" fill="#003055" rx="2"/>
  <rect x="656" y="55" width="13" height="13" fill="#005a99" rx="2"/>
  <rect x="656" y="70" width="13" height="13" fill="#003055" rx="2"/>
  <rect x="656" y="85" width="13" height="13" fill="#003055" rx="2"/>
  <rect x="656" y="100" width="13" height="13" fill="#003055" rx="2"/>
  <rect x="656" y="115" width="13" height="13" fill="#005a99" rx="2"/>
  <rect x="656" y="130" width="13" height="13" fill="#003055" rx="2"/>
  <rect x="671" y="40" width="13" height="13" fill="#003055" rx="2"/>
  <rect x="671" y="55" width="13" height="13" fill="#005a99" rx="2"/>
  <rect x="671" y="70" width="13" height="13" fill="#003055" rx="2"/>
  <rect x="671" y="85" width="13" height="13" fill="#003055" rx="2"/>
  <rect x="671" y="100" width="13" height="13" fill="#003055" rx="2"/>
  <rect x="671" y="115" width="13" height="13" fill="#003055" rx="2"/>
  <rect x="671" y="130" width="13" height="13" fill="#003055" rx="2"/>
  <rect x="686" y="40" width="13" height="13" fill="#003055" rx="2"/>
  <rect x="686" y="55" width="13" height="13" fill="#55ffff" rx="2" filter="url(#glow)"/>
  <rect x="686" y="70" width="13" height="13" fill="#003055" rx="2"/>
  <rect x="686" y="85" width="13" height="13" fill="#003055" rx="2"/>
  <rect x="686" y="100" width="13" height="13" fill="#003055" rx="2"/>
  <rect x="686" y="115" width="13" height="13" fill="#003055" rx="2"/>
  <rect x="686" y="130" width="13" height="13" fill="#0088cc" rx="2"/>
  <rect x="701" y="40" width="13" height="13" fill="#00007a" rx="2"/>
  <rect x="701" y="55" width="13" height="13" fill="#00007a" rx="2"/>
  <rect x="701" y="70" width="13" height="13" fill="#00007a" rx="2"/>
  <rect x="701" y="85" width="13" height="13" fill="#003055" rx="2"/>
  <rect x="701" y="100" width="13" height="13" fill="#005a99" rx="2"/>
  <rect x="701" y="115" width="13" height="13" fill="#003055" rx="2"/>
  <rect x="701" y="130" width="13" height="13" fill="#005a99" rx="2"/>
  <rect x="716" y="40" width="13" height="13" fill="#003055" rx="2"/>
  <rect x="716" y="55" width="13" height="13" fill="#003055" rx="2"/>
  <rect x="716" y="70" width="13" height="13" fill="#005a99" rx="2"/>
  <rect x="716" y="85" width="13" height="13" fill="#003055" rx="2"/>
  <rect x="716" y="100" width="13" height="13" fill="#003055" rx="2"/>
  <rect x="716" y="115" width="13" height="13" fill="#005a99" rx="2"/>
  <rect x="716" y="130" width="13" height="13" fill="#0088cc" rx="2"/>
  <rect x="731" y="40" width="13" height="13" fill="#005a99" rx="2"/>
  <rect x="731" y="55" width="13" height="13" fill="#003055" rx="2"/>
  <rect x="731" y="70" width="13" height="13" fill="#003055" rx="2"/>
  <rect x="731" y="85" width="13" height="13" fill="#005a99" rx="2"/>
  <rect x="731" y="100" width="13" height="13" fill="#003055" rx="2"/>
  <rect x="731" y="115" width="13" height="13" fill="#003055" rx="2"/>
  <rect x="731" y="130" width="13" height="13" fill="#005a99" rx="2"/>
  <rect x="746" y="40" width="13" height="13" fill="#005a99" rx="2"/>
  <rect x="746" y="55" width="13" height="13" fill="#003055" rx="2"/>
  <rect x="746" y="70" width="13" height="13" fill="#005a99" rx="2"/>
  <rect x="746" y="85" width="13" height="13" fill="#0088cc" rx="2"/>
  <rect x="746" y="100" width="13" height="13" fill="#0088cc" rx="2"/>
  <rect x="746" y="115" width="13" height="13" fill="#0088cc" rx="2"/>
  <rect x="746" y="130" width="13" height="13" fill="#005a99" rx="2"/>
  <rect x="761" y="40" width="13" height="13" fill="#003055" rx="2"/>
  <rect x="761" y="55" width="13" height="13" fill="#005a99" rx="2"/>
  <rect x="761" y="70" width="13" height="13" fill="#003055" rx="2"/>
  <rect x="761" y="85" width="13" height="13" fill="#005a99" rx="2"/>
  <rect x="761" y="100" width="13" height="13" fill="#00007a" rx="2"/>
  <rect x="761" y="115" width="13" height="13" fill="#00007a" rx="2"/>
  <rect x="761" y="130" width="13" height="13" fill="#003055" rx="2"/>
  <rect x="776" y="40" width="13" height="13" fill="#003055" rx="2"/>
  <rect x="776" y="55" width="13" height="13" fill="#003055" rx="2"/>
  <rect x="776" y="70" width="13" height="13" fill="#003055" rx="2"/>
  <rect x="776" y="85" width="13" height="13" fill="#003055" rx="2"/>
  <rect x="776" y="100" width="13" height="13" fill="#003055" rx="2"/>
  <rect x="776" y="115" width="13" height="13" fill="#005a99" rx="2"/>
  <rect x="776" y="130" width="13" height="13" fill="#003055" rx="2"/>
  <rect x="791" y="40" width="13" height="13" fill="#0088cc" rx="2"/>
  <rect x="791" y="55" width="13" height="13" fill="#003055" rx="2"/>
  <rect x="791" y="70" width="13" height="13" fill="#005a99" rx="2"/>
  <rect x="791" y="85" width="13" height="13" fill="#003055" rx="2"/>
  <rect x="791" y="100" width="13" height="13" fill="#003055" rx="2"/>
  <rect x="791" y="115" width="13" height="13" fill="#005a99" rx="2"/>
  <rect x="791" y="130" width="13" height="13" fill="#003055" rx="2"/>
  <rect x="806" y="40" width="13" height="13" fill="#003055" rx="2"/>
  <rect x="806" y="55" width="13" height="13" fill="#005a99" rx="2"/>
  <rect x="806" y="70" width="13" height="13" fill="#003055" rx="2"/>
  <rect x="806" y="85" width="13" height="13" fill="#003055" rx="2"/>
  <rect x="806" y="100" width="13" height="13" fill="#005a99" rx="2"/>
  <rect x="806" y="115" width="13" height="13" fill="#0088cc" rx="2"/>
  <rect x="806" y="130" width="13" height="13" fill="#003055" rx="2"/>
  <text x="41" y="171" font-size="10" fill="#aaaaaa" font-family="'Courier New',monospace">Less</text><rect x="77" y="161" width="13" height="13" fill="#00007a" rx="2"/><rect x="94" y="161" width="13" height="13" fill="#003055" rx="2"/><rect x="111" y="161" width="13" height="13" fill="#005a99" rx="2"/><rect x="128" y="161" width="13" height="13" fill="#0088cc" rx="2"/><rect x="145" y="161" width="13" height="13" fill="#55ffff" rx="2"/><text x="166" y="171" font-size="10" fill="#aaaaaa" font-family="'Courier New',monospace">More</text>
</svg>