<svg xmlns="http://www.w3.org/2000/svg" width="860" height="500" viewBox="0 0 860 500">
  <rect width="860" height="500" fill="#0000aa"/>
  <rect width="860" height="24" fill="#aaaaaa"/>
  <text x="10" y="16" font-size="11" fill="#0000aa" font-family="'Courier New',monospace" font-weight="bold" letter-spacing="2">&#9632;  LANGUAGE RADAR &#8212; inetanel (2 languages)</text>
  <polygon points="430.0,242.4 430.0,301.6" fill="none" stroke="#55ffff" stroke-width="0.5" opacity="0.15"/>
  <text x="435" y="247" font-size="10" fill="#55ffff" opacity="0.45" font-family="'Courier New',monospace">20%</text>
  <polygon points="430.0,212.8 430.0,331.2" fill="none" stroke="#55ffff" stroke-width="0.5" opacity="0.15"/>
  <text x="435" y="218" font-size="10" fill="#55ffff" opacity="0.45" font-family="'Courier New',monospace">40%</text>
  <polygon points="430.0,183.2 430.0,360.8" fill="none" stroke="#55ffff" stroke-width="0.5" opacity="0.15"/>
  <text x="435" y="188" font-size="10" fill="#55ffff" opacity="0.45" font-family="'Courier New',monospace">60%</text>
  <polygon points="430.0,153.6 430.0,390.4" fill="none" stroke="#55ffff" stroke-width="0.5" opacity="0.15"/>
  <text x="435" y="159" font-size="10" fill="#55ffff" opacity="0.45" font-family="'Courier New',monospace">80%</text>
  <polygon points="430.0,124.0 430.0,420.0" fill="none" stroke="#55ffff" stroke-width="1" opacity="0.45"/>
  <text x="435" y="129" font-size="10" fill="#55ffff" opacity="0.45" font-family="'Courier New',monospace">100%</text>
  <line x1="430.0" y1="272.0" x2="430.0" y2="124.0" stroke="#55ffff" stroke-width="0.5" opacity="0.18"/>
  <line x1="430.0" y1="272.0" x2="430.0" y2="420.0" stroke="#55ffff" stroke-width="0.5" opacity="0.18"/>
  <polygon points="430.0,124.0 430.0,282.0" fill="#55ffff" fill-opacity="0.1" stroke="#55ffff" stroke-width="2" stroke-linejoin="round"/>
  <circle cx="430.0" cy="124.0" r="13" fill="#55ffff" opacity="0.12"/>
  <circle cx="430.0" cy="124.0" r="5" fill="#55ffff" stroke="#0000aa" stroke-width="2"/>
  <line x1="430.0" y1="124.0" x2="430.0" y2="54.0" stroke="#55ffff" stroke-width="0.5" opacity="0.3" stroke-dasharray="3 3"/>
  <rect x="391.0" y="32.0" width="78" height="44" fill="#00007a" rx="3"/>
  <rect x="391.0" y="32.0" width="78" height="44" fill="none" stroke="#55ffff" stroke-width="1" rx="3" opacity="0.7"/>
  <text x="430.0" y="48.0" font-size="13" fill="#55ffff" font-family="'Courier New',monospace" text-anchor="middle" font-weight="bold">Python</text>
  <text x="430.0" y="66.0" font-size="15" fill="#ffffff" font-family="'Courier New',monospace" text-anchor="middle" font-weight="bold">99.6%</text>
  <circle cx="430.0" cy="282.0" r="13" fill="#ffff55" opacity="0.12"/>
  <circle cx="430.0" cy="282.0" r="5" fill="#ffff55" stroke="#0000aa" stroke-width="2"/>
  <line x1="430.0" y1="282.0" x2="430.0" y2="470.0" stroke="#ffff55" stroke-width="0.5" opacity="0.3" stroke-dasharray="3 3"/>
  <rect x="395.5" y="448.0" width="69" height="44" fill="#00007a" rx="3"/>
  <rect x="395.5" y="448.0" width="69" height="44" fill="none" stroke="#ffff55" stroke-width="1" rx="3" opacity="0.7"/>
  <text x="430.0" y="464.0" font-size="13" fill="#ffff55" font-family="'Courier New',monospace" text-anchor="middle" font-weight="bold">Shell</text>
  <text x="430.0" y="482.0" font-size="15" fill="#ffffff" font-family="'Courier New',monospace" text-anchor="middle" font-weight="bold">0.4%</text>
  <circle cx="430.0" cy="272.0" r="3" fill="#55ffff"/>
</svg>