<svg xmlns="http://www.w3.org/2000/svg" width="860" height="204" viewBox="0 0 860 204">
  <rect width="860" height="204" fill="#0000aa"/>
  <rect width="860" height="28" fill="#aaaaaa"/>
  <rect x="0" y="0" width="4" height="28" fill="#0000aa"/>
  <text x="14" y="19" font-size="13" fill="#0000aa" font-family="'Courier New',monospace" font-weight="bold" letter-spacing="2">&#9632;  GITHUB STATS &#8212; inetanel</text>
  <text x="760" y="19" font-size="11" fill="#0000aa" font-family="'Courier New',monospace">[ F9 ]</text>
  <rect x="20" y="48" width="268" height="64" fill="#00007a" rx="4" opacity="0.6"/>
  <rect x="20" y="48" width="3" height="64" fill="#ffff55" rx="1"/>
  <text x="154" y="76" font-size="26" fill="#ffff55" font-family="'Courier New',monospace" text-anchor="middle" font-weight="bold">—</text>
  <text x="154" y="100" font-size="11" fill="#aaaaaa" font-family="'Courier New',monospace" text-anchor="middle">Stars</text>
  <rect x="296" y="48" width="268" height="64" fill="#00007a" rx="4" opacity="0.6"/>
  <rect x="296" y="48" width="3" height="64" fill="#55ffff" rx="1"/>
  <text x="430" y="76" font-size="26" fill="#55ffff" font-family="'Courier New',monospace" text-anchor="middle" font-weight="bold">—</text>
  <text x="430" y="100" font-size="11" fill="#aaaaaa" font-family="'Courier New',monospace" text-anchor="middle">Commits</text>
  <rect x="572" y="48" width="268" height="64" fill="#00007a" rx="4" opacity="0.6"/>
  <rect x="572" y="48" width="3" height="64" fill="#55ffff" rx="1"/>
  <text x="706" y="76" font-size="26" fill="#55ffff" font-family="'Courier New',monospace" text-anchor="middle" font-weight="bold">—</text>
  <text x="706" y="100" font-size="11" fill="#aaaaaa" font-family="'Courier New',monospace" text-anchor="middle">Pull Requests</text>
  <rect x="20" y="120" width="268" height="64" fill="#00007a" rx="4" opacity="0.6"/>
  <rect x="20" y="120" width="3" height="64" fill="#55ffff" rx="1"/>
  <text x="154" y="148" font-size="26" fill="#55ffff" font-family="'Courier New',monospace" text-anchor="middle" font-weight="bold">—</text>
  <text x="154" y="172" font-size="11" fill="#aaaaaa" font-family="'Courier New',monospace" text-anchor="middle">Repositories</text>
  <rect x="296" y="120" width="268" height="64" fill="#00007a" rx="4" opacity="0.6"/>
  <rect x="296" y="120" width="3" height="64" fill="#55ffff" rx="1"/>
  <text x="430" y="148" font-size="26" fill="#55ffff" font-family="'Courier New',monospace" text-anchor="middle" font-weight="bold">—</text>
  <text x="430" y="172" font-size="11" fill="#aaaaaa" font-family="'Courier New',monospace" text-anchor="middle">Followers</text>
  <rect x="572" y="120" width="268" height="64" fill="#00007a" rx="4" opacity="0.6"/>
  <rect x="572" y="120" width="3" height="64" fill="#55ffff" rx="1"/>
  <text x="706" y="148" font-size="26" fill="#55ffff" font-family="'Courier New',monospace" text-anchor="middle" font-weight="bold">—</text>
  <text x="706" y="172" font-size="11" fill="#aaaaaa" font-family="'Courier New',monospace" text-anchor="middle">Contributions</text>
</svg>